<?xml version="1.0" encoding="UTF-8"?>
<svg width="18px" height="13px" viewBox="0 0 18 13" version="1.1" xmlns="http://www.w3.org/2000/svg" xmlns:xlink="http://www.w3.org/1999/xlink">
    <title>xhdpi/编组 21</title>
    <g id="页面-1" stroke="none" stroke-width="1" fill="none" fill-rule="evenodd">
        <g id="投资攻略详情页" transform="translate(-1486.000000, -402.000000)" stroke="#A1A1A1">
            <g id="编组-5" transform="translate(1240.000000, 140.000000)">
                <g id="编组-9" transform="translate(20.000000, 230.000000)">
                    <g id="编组-5复制" transform="translate(0.000000, 24.500000)">
                        <g id="编组-13" transform="translate(226.500000, 0.500000)">
                            <g id="编组-21" transform="translate(0.000000, 7.771251)">
                                <path d="M16.5718376,4.73241327 C17.0957889,5.34929809 17.0957889,6.25862544 16.5718376,6.87462138 C15.1475383,8.55194366 12.0612619,11.6079235 8.48195876,11.6079235 C4.90353922,11.6079235 1.81726281,8.55194366 0.392963479,6.87462138 C-0.130987826,6.25862544 -0.130987826,5.34929809 0.392963479,4.73241327 C1.81726281,3.05597987 4.90353922,-7.89590615e-13 8.48195876,-7.89590615e-13 C12.0612619,-7.89590615e-13 15.1475383,3.05597987 16.5718376,4.73241327 Z" id="Stroke-1"></path>
                                <path d="M10.9551326,5.80360621 C10.9551326,7.17781938 9.84803146,8.29158982 8.48204712,8.29158982 C7.11694633,8.29158982 6.00984517,7.17781938 6.00984517,5.80360621 C6.00984517,4.43028193 7.11694633,3.31651148 8.48204712,3.31651148 C9.84803146,3.31651148 10.9551326,4.43028193 10.9551326,5.80360621 Z" id="Stroke-3"></path>
                            </g>
                        </g>
                    </g>
                </g>
            </g>
        </g>
    </g>
</svg>