<?xml version="1.0" encoding="UTF-8"?>
<svg width="30px" height="30px" viewBox="0 0 30 30" version="1.1" xmlns="http://www.w3.org/2000/svg" xmlns:xlink="http://www.w3.org/1999/xlink">
    <title>形状</title>
    <g id="页面-1" stroke="none" stroke-width="1" fill="none" fill-rule="evenodd">
        <g id="首页" transform="translate(-1304.000000, -516.000000)" fill="#FFFFFF" fill-rule="nonzero">
            <g id="banner" transform="translate(0.000000, 60.000000)">
                <g id="编组-5" transform="translate(565.000000, 437.000000)">
                    <g id="搜索" transform="translate(739.000000, 19.000000)">
                        <path d="M19.2685896,6.4818525 L19.26859,6.48185283 C15.7304359,2.94417997 9.99435028,2.94460106 6.45667742,6.48275804 C2.91900455,10.0209122 2.91942564,15.7569977 6.45758262,19.2946706 C6.45758262,19.2946706 6.45758262,19.2946706 6.45758262,19.2946706 L6.45758206,19.29467 C9.99504438,22.8310796 15.7292952,22.8310796 19.2667876,19.2946712 L19.2667874,19.2946713 C22.8049415,15.7574497 22.8056935,10.0216949 19.2684768,6.48354081 C19.2679139,6.48297774 19.2673509,6.48241474 19.2667878,6.48185181 M28.6879894,28.7158683 L28.6879894,28.7158683 C27.9812579,29.4228013 26.8352589,29.4229638 26.1283259,28.7162318 C26.1282047,28.7161107 26.1280835,28.7159895 26.1279624,28.7158683 L20.4209022,23.0088081 C15.4548476,26.7229195 8.40888824,26.3696214 3.89578065,21.8565259 L3.89578194,21.8565272 C-1.05724882,16.9054214 -1.05881288,8.87653784 3.89230175,3.92350708 C3.89346073,3.92234765 3.89461993,3.92118845 3.89577936,3.92002947 L3.89577836,3.92003046 C8.84739545,-1.03248897 16.876279,-1.03324093 21.8287984,3.91836289 C21.8293537,3.91891803 21.8299089,3.91947323 21.830464,3.92002848 C26.3453763,8.43494076 26.6968697,15.4790954 22.9827463,20.4469547 L28.6898065,26.1540149 L28.6898064,26.1540148 C29.3970883,26.8615103 29.3970883,28.0083575 28.6898065,28.7158529" id="形状"></path>
                    </g>
                </g>
            </g>
        </g>
    </g>
</svg>