<?xml version="1.0" encoding="UTF-8"?>
<svg width="86px" height="86px" viewBox="0 0 86 86" version="1.1" xmlns="http://www.w3.org/2000/svg" xmlns:xlink="http://www.w3.org/1999/xlink">
    <title>编组 18</title>
    <defs>
        <rect id="path-1" x="360" y="1138" width="720" height="209" rx="8"></rect>
        <filter x="-4.0%" y="-12.0%" width="108.1%" height="127.8%" filterUnits="objectBoundingBox" id="filter-2">
            <feOffset dx="0" dy="4" in="SourceAlpha" result="shadowOffsetOuter1"></feOffset>
            <feGaussianBlur stdDeviation="9" in="shadowOffsetOuter1" result="shadowBlurOuter1"></feGaussianBlur>
            <feColorMatrix values="0 0 0 0 0.902032382   0 0 0 0 0.902032382   0 0 0 0 0.902032382  0 0 0 1 0" type="matrix" in="shadowBlurOuter1"></feColorMatrix>
        </filter>
        <linearGradient x1="100%" y1="63.6330003%" x2="0%" y2="57.0708077%" id="linearGradient-3">
            <stop stop-color="#905BFF" offset="0%"></stop>
            <stop stop-color="#40D4FF" offset="100%"></stop>
        </linearGradient>
    </defs>
    <g id="页面-1" stroke="none" stroke-width="1" fill="none" fill-rule="evenodd">
        <g id="首页" transform="translate(-677.000000, -1178.000000)">
            <g id="矩形">
                <use fill="black" fill-opacity="1" filter="url(#filter-2)" xlink:href="#path-1"></use>
                <use fill="#FFFFFF" fill-rule="evenodd" xlink:href="#path-1"></use>
            </g>
            <g id="编组-18" transform="translate(677.000000, 1178.000000)">
                <path d="M45.88,1.66276878 L77.3590924,19.8372312 C79.1412426,20.8661561 80.2390924,22.7676878 80.2390924,24.8255376 L80.2390924,61.1744624 C80.2390924,63.2323122 79.1412426,65.1338439 77.3590924,66.1627688 L45.88,84.3372312 C44.0978498,85.3661561 41.9021502,85.3661561 40.12,84.3372312 L8.64090764,66.1627688 C6.85875744,65.1338439 5.76090764,63.2323122 5.76090764,61.1744624 L5.76090764,24.8255376 C5.76090764,22.7676878 6.85875744,20.8661561 8.64090764,19.8372312 L40.12,1.66276878 C41.9021502,0.633843876 44.0978498,0.633843876 45.88,1.66276878 Z" id="多边形备份" fill="#F5F8FA"></path>
                <g id="贷款" transform="translate(18.000000, 19.000000)" fill="url(#linearGradient-3)" fill-rule="nonzero">
                    <path d="M23.2270462,48.0550837 L22.7973711,48.0550837 C22.0331315,48.0550837 21.2692673,47.9596005 20.5292688,47.7451357 L1.981621,42.8750939 C0.788081783,42.5409025 -0.0235277014,41.4428422 0.000342613645,40.2254326 L0.000342613645,30.4622579 C0.000342613645,29.7226348 0.286792495,29.0300061 0.788081783,28.5052206 C1.28936779,27.9800643 1.981621,27.6932403 2.72161954,27.6932403 L20.2909411,27.6932403 C24.8741402,27.6932403 26.4977393,30.295161 26.4977393,32.5155039 C26.5212371,34.2338287 25.7100001,35.8570476 24.349364,36.8834947 C23.5138842,37.552253 22.5109367,37.933812 21.4367491,38.0292932 L14.3709763,38.6976761 L14.1800095,38.6976761 C12.8193734,38.6976761 11.6735748,37.7428448 11.410992,36.406079 L11.410992,36.3579643 C11.2200252,35.6183412 11.5780879,34.854477 12.2942124,34.5441536 L12.2942122,34.5441536 C12.4872248,34.4489934 12.6996589,34.3998424 12.9148545,34.4005558 C13.4877562,34.4005558 14.0129125,34.7108765 14.2754906,35.2125361 L14.4187158,35.4751152 L21.1025448,34.8783432 L21.102545,34.8783432 C21.5744084,34.8548099 22.0298077,34.6973611 22.4154405,34.4244242 C23.0360827,33.9708784 23.3702718,33.2786256 23.3464015,32.5151323 C23.3464015,31.7508926 22.8212452,30.8199316 20.2670652,30.8199316 L3.12779412,30.8199316 L3.12779412,39.9385703 L21.3651184,44.6649959 C21.8421633,44.7843498 22.3199498,44.8563353 22.7973702,44.8563353 L23.1076909,44.8563353 C23.8950546,44.8563353 24.6592942,44.6414978 25.3273063,44.2114519 L25.5182731,44.0920975 C26.8550389,43.1611365 31.8201583,40.1772814 36.3798765,37.4563752 L39.1966347,35.7611745 C40.2465766,35.1886484 40.7721084,34.018604 40.5095302,32.8489351 L40.5095302,32.6818391 L40.4860324,32.6105999 C40.3905492,32.2521646 40.127597,31.9657165 39.7937791,31.8228607 C39.5793147,31.7270045 39.3163635,31.6796356 39.029915,31.6796356 C38.1944352,31.6796356 37.0725069,32.0854398 36.2608974,32.371518 C35.5209036,32.6105994 34.6376831,32.9444196 33.9454252,33.2547384 C33.8022001,33.30248 33.6828461,33.30248 33.5392483,33.30248 C32.9905925,33.30248 32.4654361,33.0160301 32.2024825,32.5386112 C31.9880181,32.1805489 31.9402765,31.750872 32.0357597,31.3450719 C32.1312428,30.9392677 32.3938219,30.6050781 32.7518832,30.3898651 C33.6116041,30.0321755 34.5660647,29.6737416 35.3060632,29.4350337 C36.3325102,29.0769715 37.7173921,28.5756836 39.1015231,28.5756836 C39.8896331,28.5756836 40.6057566,28.7424064 41.2502692,29.0527285 C42.395697,29.6021306 43.2076772,30.6285776 43.517996,31.8456164 L43.517996,31.8694872 C44.3057352,34.3281813 43.2792877,37.0016988 41.0831723,38.3623443 C40.8205932,38.5290672 40.2715628,38.8636303 38.0754469,40.176155 L36.1419091,41.3461994 C32.8238649,43.3509773 28.6707258,45.8335417 27.4767876,46.6451653 C26.2108865,47.5537485 24.7308941,48.05541 23.2270361,48.0550837 L23.2270462,48.0550837 Z M29.4812001,28.695866 L29.4812,28.695866 C29.0768714,28.6936263 28.6901239,28.5302558 28.4066416,28.241945 C28.1201917,27.9554951 27.9534689,27.5500625 27.9534689,27.1200167 L27.9534689,23.2533167 L22.7019057,23.2533167 C21.8425556,23.2533167 21.1264321,22.5371931 21.1264321,21.677843 C21.1264321,20.8184929 21.8425556,20.1023694 22.7022812,20.1023694 L27.9538444,20.1023694 L27.9538444,17.8107675 L22.7022812,17.8107675 C21.8425603,17.8107675 21.1264321,17.094644 21.1264321,16.2352939 C21.1264321,15.3759437 21.8425556,14.6598202 22.7022812,14.6598202 L26.1154359,14.6598202 L23.2270667,9.62307111 C23.0126023,9.26500887 22.9644876,8.83533194 23.0599708,8.40565688 C23.1793247,7.99985261 23.4419038,7.64178802 23.7999646,7.42695519 L23.7999644,7.42695531 C24.0388126,7.2869981 24.3104963,7.21286731 24.5873281,7.21205617 C25.1606005,7.21205617 25.6857569,7.52243845 25.97221,7.99985695 L29.5285913,14.1585484 L33.0857188,7.99985695 C33.3721687,7.49857095 33.8973283,7.21205617 34.4698544,7.21205617 L34.4698544,7.21205617 C34.7473531,7.20960554 35.0201295,7.28396386 35.2579643,7.42695531 C35.6156539,7.64179284 35.9024769,7.97598663 35.9975874,8.405657 C36.1165687,8.81146127 36.045329,9.2411368 35.8304915,9.62307123 L32.918252,14.6598203 L36.3314067,14.6598203 C37.1911276,14.6598203 37.9072558,15.3759439 37.9072558,16.235294 C37.9072558,17.0946441 37.1911323,17.8107676 36.3314067,17.8107676 L31.0798435,17.8107676 L31.0798435,20.1023695 L36.3314067,20.1023695 C37.1911276,20.1023695 37.9072558,20.818493 37.9072558,21.6778431 C37.9072558,22.5371933 37.1911323,23.2533168 36.3314067,23.2533168 L31.0798435,23.2533168 L31.0798435,27.1203923 C31.0805895,27.9797424 30.3883365,28.695866 29.4812458,28.695866 L29.4812001,28.695866 Z M48.4163768,28.9979793 C48.4163768,28.9979793 48.206388,30.2056924 46.7107335,29.9088012 C45.2713994,29.6230971 45.4944409,28.3937496 45.4944409,28.3937496 C47.6905568,17.7686434 45.3765786,9.65442589 38.9788211,5.54564348 C33.227793,1.85238103 24.8618248,2.24662139 19.08733,6.48182823 C13.3855819,10.6637 11.3565582,17.6231546 13.5209377,25.574748 C13.5209377,25.574748 13.8681837,26.5068308 12.3784949,26.9514212 C10.8750076,27.4001184 10.6418943,26.3583805 10.6418943,26.3583805 C8.13545956,17.149442 10.5702819,9.027809 17.322391,4.07535223 C24.1632591,-0.942388867 33.7320827,-1.37093752 40.5912079,3.03473133 C44.9405473,5.82836545 51.7403722,12.9157558 48.4163627,28.9979933 L48.4163768,28.9979793 Z" id="形状"></path>
                </g>
            </g>
        </g>
    </g>
</svg>


