<?xml version="1.0" encoding="UTF-8"?>
<svg width="86px" height="86px" viewBox="0 0 86 86" version="1.1" xmlns="http://www.w3.org/2000/svg"
     xmlns:xlink="http://www.w3.org/1999/xlink">
    <title>编组 19</title>
    <defs>
        <rect id="path-1" x="360" y="1138" width="720" height="209" rx="8"/>
        <filter x="-4.0%" y="-12.0%" width="108.1%" height="127.8%" filterUnits="objectBoundingBox" id="filter-2">
            <feOffset dx="0" dy="4" in="SourceAlpha" result="shadowOffsetOuter1"/>
            <feGaussianBlur stdDeviation="9" in="shadowOffsetOuter1" result="shadowBlurOuter1"/>
            <feColorMatrix values="0 0 0 0 0.902032382   0 0 0 0 0.902032382   0 0 0 0 0.902032382  0 0 0 1 0"
                           type="matrix" in="shadowBlurOuter1"/>
        </filter>
        <linearGradient x1="100%" y1="62.5462321%" x2="0%" y2="56.5071512%" id="linearGradient-1">
            <stop stop-color="#905BFF" offset="0%"/>
            <stop stop-color="#40D4FF" offset="100%"/>
        </linearGradient>
    </defs>
    <g id="页面-1" stroke="none" stroke-width="1" fill="none" fill-rule="evenodd">
        <g id="首页" transform="translate(-901.000000, -1178.000000)">
            <g id="矩形">
                <use fill="black" fill-opacity="1" filter="url(#filter-2)" xlink:href="#path-1"/>
                <use fill="#FFFFFF" fill-rule="evenodd" xlink:href="#path-1"/>
            </g>
            <g id="编组-19" transform="translate(901.000000, 1178.000000)">
                <path d="M45.88,1.66276878 L77.3590924,19.8372312 C79.1412426,20.8661561 80.2390924,22.7676878 80.2390924,24.8255376 L80.2390924,61.1744624 C80.2390924,63.2323122 79.1412426,65.1338439 77.3590924,66.1627688 L45.88,84.3372312 C44.0978498,85.3661561 41.9021502,85.3661561 40.12,84.3372312 L8.64090764,66.1627688 C6.85875744,65.1338439 5.76090764,63.2323122 5.76090764,61.1744624 L5.76090764,24.8255376 C5.76090764,22.7676878 6.85875744,20.8661561 8.64090764,19.8372312 L40.12,1.66276878 C41.9021502,0.633843876 44.0978498,0.633843876 45.88,1.66276878 Z"
                      id="多边形" fill="#F5F8FA"/>
                <g id="投资指南" transform="translate(19.000000, 23.000000)" fill="url(#linearGradient-1)"
                   fill-rule="nonzero">
                    <path d="M22.2337759,42.9044524 C10.3757621,42.9044524 0.889351035,33.4180414 0.889351035,21.5600276 C0.889351035,9.7020138 10.3757621,0.21560276 22.2337759,0.21560276 L24.3089283,0.21560276 C25.1982793,0.21560276 25.79118,1.10495379 25.79118,1.99430483 C25.79118,2.88365586 24.901829,3.47655655 24.0124779,3.47655655 L22.2337759,3.47655655 C12.1544641,3.18010621 4.15030483,11.4807159 4.15030483,21.5600276 C4.15030483,31.6393393 12.4509145,39.939949 22.5302262,39.939949 C31.7201869,39.939949 39.1314455,33.4180414 40.6136973,24.524531 C40.6136973,23.63518 41.5030483,23.0422793 42.3923993,23.3387297 C43.2817504,23.3387297 43.8746511,24.2280807 43.5782007,25.1174317 C41.7994986,35.4931938 32.9059883,42.9044524 22.2337759,42.9044524 Z M3.85385448,30.4535379 C3.55740414,30.4535379 3.26095379,30.4535379 2.96450345,30.1570876 C2.37160276,29.5641869 2.37160276,28.6748359 2.96450345,27.7854848 C6.52190759,24.2280807 14.5260669,16.5203717 14.5260669,16.2239214 C15.1189676,15.6310207 16.0083186,15.6310207 16.6012193,16.2239214 L23.1231269,22.745829 L42.6888497,3.18010621 C43.2817504,2.58720552 44.1711014,2.58720552 45.0604524,3.18010621 C45.6533531,3.7730069 45.6533531,4.66235793 45.0604524,5.55170897 L24.3089283,26.3032331 C23.7160276,26.8961338 22.8266766,26.8961338 22.2337759,26.3032331 L15.4154179,19.7813255 L5.03965586,30.1570876 C4.74320552,30.4535379 4.44675517,30.4535379 3.85385448,30.4535379 L3.85385448,30.4535379 Z M45.0604524,15.3345704 C44.1711014,15.3345704 43.5782007,14.7416697 43.5782007,13.8523186 L43.5782007,4.95880828 L34.6846904,4.95880828 C33.7953393,4.95880828 33.2024386,4.36590759 33.2024386,3.47655655 C33.2024386,2.58720552 33.7953393,1.99430483 34.6846904,1.99430483 L45.0604524,1.99430483 C45.9498035,1.99430483 46.5427042,2.58720552 46.5427042,3.47655655 L46.5427042,13.8523186 C46.5427042,14.7416697 45.9498035,15.3345704 45.0604524,15.3345704 Z"
                          id="形状"/>
                </g>
            </g>
        </g>
    </g>
</svg>