<?xml version="1.0" encoding="UTF-8"?>
<svg width="86px" height="86px" viewBox="0 0 86 86" version="1.1" xmlns="http://www.w3.org/2000/svg"
     xmlns:xlink="http://www.w3.org/1999/xlink">
    <title>编组 18备份</title>
    <defs>
        <rect id="path-1" x="360" y="1138" width="720" height="209" rx="8"/>
        <filter x="-4.0%" y="-12.0%" width="108.1%" height="127.8%" filterUnits="objectBoundingBox" id="filter-2">
            <feOffset dx="0" dy="4" in="SourceAlpha" result="shadowOffsetOuter1"/>
            <feGaussianBlur stdDeviation="9" in="shadowOffsetOuter1" result="shadowBlurOuter1"/>
            <feColorMatrix values="0 0 0 0 0.902032382   0 0 0 0 0.902032382   0 0 0 0 0.902032382  0 0 0 1 0"
                           type="matrix" in="shadowBlurOuter1"/>
        </filter>
        <linearGradient x1="100%" y1="60.7778953%" x2="0%" y2="55.5899966%" id="linearGradient-3">
            <stop stop-color="#905BFF" offset="0%"/>
            <stop stop-color="#40D4FF" offset="100%"/>
        </linearGradient>
    </defs>
    <g id="页面-1" stroke="none" stroke-width="1" fill="none" fill-rule="evenodd">
        <g id="首页" transform="translate(-453.000000, -1178.000000)">
            <g id="矩形">
                <use fill="black" fill-opacity="1" filter="url(#filter-2)" xlink:href="#path-1"/>
                <use fill="#FFFFFF" fill-rule="evenodd" xlink:href="#path-1"/>
            </g>
            <g id="编组-18备份" transform="translate(453.000000, 1178.000000)">
                <path d="M45.88,1.66276878 L77.3590924,19.8372312 C79.1412426,20.8661561 80.2390924,22.7676878 80.2390924,24.8255376 L80.2390924,61.1744624 C80.2390924,63.2323122 79.1412426,65.1338439 77.3590924,66.1627688 L45.88,84.3372312 C44.0978498,85.3661561 41.9021502,85.3661561 40.12,84.3372312 L8.64090764,66.1627688 C6.85875744,65.1338439 5.76090764,63.2323122 5.76090764,61.1744624 L5.76090764,24.8255376 C5.76090764,22.7676878 6.85875744,20.8661561 8.64090764,19.8372312 L40.12,1.66276878 C41.9021502,0.633843876 44.0978498,0.633843876 45.88,1.66276878 Z"
                      id="多边形备份" fill="#F5F8FA"/>
                <g id="地产" transform="translate(19.000000, 22.000000)" fill="url(#linearGradient-3)"
                   fill-rule="nonzero">
                    <path d="M46.3188539,39.1578481 L44.721652,39.1578481 L44.721652,16.7970221 C44.721652,13.288018 41.8418487,10.4082147 38.3328446,10.4082147 L28.7496335,10.4082147 L28.7496335,7.21381095 C28.7496335,3.70480687 25.8698301,0.82500352 22.360826,0.82500352 L9.58321115,0.82500352 C6.07420707,0.82500352 3.19440372,3.70480687 3.19440372,7.21381095 L3.19440372,39.1578481 L1.59720186,39.1578481 C0.701800817,39.1578481 -8.06022854e-15,39.8596489 -8.06022854e-15,40.75505 C-8.06022854e-15,41.650451 0.701800817,42.3522518 1.59720186,42.3522518 L46.3188539,42.3522518 C47.2142549,42.3522518 47.9160558,41.650451 47.9160558,40.75505 C47.9160558,39.8596489 47.2142549,39.1578481 46.3188539,39.1578481 Z M25.5552297,10.4082147 L25.5552297,39.1578481 L6.38880743,39.1578481 L6.38880743,7.21381095 C6.38880743,5.4472089 7.8166091,4.01940724 9.58321115,4.01940724 L22.360826,4.01940724 C24.1274281,4.01940724 25.5552297,5.4472089 25.5552297,7.21381095 L25.5552297,10.4082147 Z M41.5272483,39.1578481 L28.7496335,39.1578481 L28.7496335,13.6026184 L38.3328446,13.6026184 C40.0994467,13.6026184 41.5272483,15.03042 41.5272483,16.7970221 L41.5272483,39.1578481 Z M20.7636242,10.4082147 L11.180413,10.4082147 C10.285012,10.4082147 9.58321115,11.1100155 9.58321115,12.0054165 C9.58321115,12.9008176 10.285012,13.6026184 11.180413,13.6026184 L20.7636242,13.6026184 C21.6590252,13.6026184 22.360826,12.9008176 22.360826,12.0054165 C22.360826,11.1100155 21.6590252,10.4082147 20.7636242,10.4082147 L20.7636242,10.4082147 Z M20.7636242,19.9914258 L11.180413,19.9914258 C10.285012,19.9914258 9.58321115,20.6932266 9.58321115,21.5886277 C9.58321115,22.4840287 10.285012,23.1858295 11.180413,23.1858295 L20.7636242,23.1858295 C21.6590252,23.1858295 22.360826,22.4840287 22.360826,21.5886277 C22.360826,20.6932266 21.6590252,19.9914258 20.7636242,19.9914258 L20.7636242,19.9914258 Z M20.7636242,29.574637 L11.180413,29.574637 C10.285012,29.574637 9.58321115,30.2764378 9.58321115,31.1718388 C9.58321115,32.0672399 10.285012,32.7690407 11.180413,32.7690407 L20.7636242,32.7690407 C21.6590252,32.7690407 22.360826,32.0672399 22.360826,31.1718388 C22.360826,30.2764378 21.6590252,29.574637 20.7636242,29.574637 L20.7636242,29.574637 Z M36.7356427,19.9914258 L33.541239,19.9914258 C32.645838,19.9914258 31.9440372,20.6932266 31.9440372,21.5886277 C31.9440372,22.4840287 32.645838,23.1858295 33.541239,23.1858295 L36.7356427,23.1858295 C37.6310438,23.1858295 38.3328446,22.4840287 38.3328446,21.5886277 C38.3328446,20.6932266 37.6310438,19.9914258 36.7356427,19.9914258 L36.7356427,19.9914258 Z M36.7356427,29.574637 L33.541239,29.574637 C32.645838,29.574637 31.9440372,30.2764378 31.9440372,31.1718388 C31.9440372,32.0672399 32.645838,32.7690407 33.541239,32.7690407 L36.7356427,32.7690407 C37.6310438,32.7690407 38.3328446,32.0672399 38.3328446,31.1718388 C38.3328446,30.2764378 37.6310438,29.574637 36.7356427,29.574637 Z"
                          id="形状"/>
                </g>
            </g>
        </g>
    </g>
</svg>
