<?xml version="1.0" encoding="UTF-8"?>
<svg width="9px" height="6px" viewBox="0 0 9 6" version="1.1" xmlns="http://www.w3.org/2000/svg"
     xmlns:xlink="http://www.w3.org/1999/xlink">
    <title>路径</title>
    <defs>
        <linearGradient x1="100%" y1="50%" x2="0%" y2="50%" id="linearGradient-1">
            <stop stop-color="#7F55FF" offset="0%"/>
            <stop stop-color="#5DBBFF" offset="100%"/>
        </linearGradient>
    </defs>
    <g id="页面-1" stroke="none" stroke-width="1" fill="none" fill-rule="evenodd">
        <g id="导航" transform="translate(-862.000000, -31.000000)">
            <g id="编组" transform="translate(600.000000, 18.000000)"/>
            <g id="编组-6">
                <rect id="矩形" fill="url(#linearGradient-1)" x="0" y="0" width="1920" height="60"/>
                <g id="三角下标（正方形）"
                   transform="translate(866.500000, 34.000000) scale(1, -1) translate(-866.500000, -34.000000) translate(862.000000, 31.000000)"
                   fill="#FFFFFF" fill-rule="nonzero">
                    <path d="M4.80322921,0.314002227 L8.32030283,4.3334069 L8.32030285,4.33340692 C8.58720441,4.63803165 8.55662351,5.10134531 8.25199844,5.36825031 C8.1181068,5.48556115 7.94611558,5.55016474 7.76810186,5.55001291 L0.733963207,5.55001291 L0.733963233,5.55001291 C0.328953934,5.5503599 0.000347457748,5.22231624 3.01980663e-14,4.8173078 C-0.000152363928,4.63929407 0.0644513214,4.46730286 0.181762591,4.33341122 L3.69883621,0.31473701 L3.69883625,0.314736968 C3.96534078,0.00976505061 4.42861405,-0.0214191263 4.73358511,0.245085317 C4.75833712,0.266715295 4.78160687,0.289984963 4.80323685,0.314737054 L4.80322921,0.314002227 Z"
                          id="路径"/>
                </g>
            </g>
        </g>
    </g>
</svg>
